<?xml version="1.0" encoding="utf-8"?>
<!-- Generator: Adobe Illustrator 24.2.0, SVG Export Plug-In . SVG Version: 6.00 Build 0)  -->
<svg version="1.1" id="Layer_1" xmlns="http://www.w3.org/2000/svg" xmlns:xlink="http://www.w3.org/1999/xlink" x="0px" y="0px"
	 viewBox="0 0 13.9 16" style="enable-background:new 0 0 13.9 16;" xml:space="preserve">
<g id="Ultralight-S" transform="matrix(1 0 0 1 517.792 696)">
	<path d="M-515.6-680h9.6c1.4,0,2.2-0.8,2.2-2.2v-8.9c0-1.4-0.8-2.2-2.2-2.2h-1.8c0-1.4-1.1-2.8-3-2.8c-1.9,0-3,1.4-3,2.8h-1.8
		c-1.4,0-2.2,0.7-2.2,2.2v8.9C-517.8-680.8-517-680-515.6-680z M-510.8-695.5c1.6,0,2.5,1.2,2.6,2.3h-5.1
		C-513.4-694.3-512.5-695.5-510.8-695.5z"/>
</g>
</svg>
