<?xml version="1.0" encoding="utf-8"?>
<!-- Generator: Adobe Illustrator 24.2.0, SVG Export Plug-In . SVG Version: 6.00 Build 0)  -->
<svg version="1.1" id="Layer_1" xmlns="http://www.w3.org/2000/svg" xmlns:xlink="http://www.w3.org/1999/xlink" x="0px" y="0px"
	 viewBox="0 0 16 16" style="enable-background:new 0 0 16 16;" xml:space="preserve">
<g id="Ultralight-S" transform="matrix(1 0 0 1 515.058 696)">
	<path d="M-508.8-683.6c1.5,0,2.9-0.5,4-1.4l4.9,4.8c0.1,0.1,0.2,0.2,0.3,0.2c0.3,0,0.5-0.2,0.5-0.5c0-0.1,0-0.2-0.1-0.3l-4.9-4.8
		c1-1.1,1.6-2.5,1.6-4.1c0-3.4-2.8-6.2-6.3-6.2s-6.3,2.8-6.3,6.2S-512.2-683.6-508.8-683.6z M-508.8-684.1c-3.2,0-5.8-2.6-5.8-5.7
		s2.6-5.7,5.8-5.7s5.8,2.6,5.8,5.7S-505.6-684.1-508.8-684.1z"/>
</g>
</svg>
