<?xml version="1.0" encoding="utf-8"?>
<!-- Generator: Adobe Illustrator 24.2.0, SVG Export Plug-In . SVG Version: 6.00 Build 0)  -->
<svg version="1.1" id="Layer_1" xmlns="http://www.w3.org/2000/svg" xmlns:xlink="http://www.w3.org/1999/xlink" x="0px" y="0px"
	 viewBox="0 0 15.1 16" style="enable-background:new 0 0 15.1 16;" xml:space="preserve">
<g id="Ultralight-S" transform="matrix(1 0 0 1 518.232 696)">
	<path d="M-510.6-688.2c2,0,3.5-1.7,3.5-3.9c0-2.1-1.6-3.9-3.5-3.9c-2,0-3.6,1.8-3.5,3.9C-514.2-689.9-512.6-688.2-510.6-688.2z
		 M-516.8-680h12.3c0.9,0,1.4-0.3,1.4-1c0-2.3-2.9-5.5-7.6-5.5c-4.7,0-7.6,3.2-7.6,5.5C-518.2-680.3-517.7-680-516.8-680z"/>
</g>
</svg>
